<svg width="30" height="30" viewBox="0 0 30 30" fill="none" xmlns="http://www.w3.org/2000/svg">
<g id="Vector">
<path id="Rectangle 414" d="M0 15C0 23.2843 6.71573 30 15 30V30C23.2843 30 30 23.2843 30 15V15C30 6.71573 23.2843 0 15 0V0C6.71573 0 0 6.71573 0 15V15Z" fill="white"/>
<path id="Union" fill-rule="evenodd" clip-rule="evenodd" d="M13.8005 8.63549C13.8005 7.97274 14.3378 7.43549 15.0005 7.43549C15.6632 7.43549 16.2005 7.97274 16.2005 8.63549V13.8011H21.363C22.0257 13.8011 22.563 14.3383 22.563 15.0011C22.563 15.6638 22.0257 16.2011 21.363 16.2011H16.2005V21.3634C16.2005 22.0261 15.6632 22.5634 15.0005 22.5634C14.3378 22.5634 13.8005 22.0261 13.8005 21.3634V16.2011H8.63506C7.97232 16.2011 7.43506 15.6638 7.43506 15.0011C7.43506 14.3383 7.97232 13.8011 8.63506 13.8011H13.8005V8.63549Z" fill="#FF9958"/>
</g>
</svg>
