<svg width="18" height="20" viewBox="0 0 18 20" fill="none" xmlns="http://www.w3.org/2000/svg">
<g id="Group">
<path id="Vector" d="M15.9341 12.98C15.6357 12.5033 15.4773 11.9524 15.4771 11.39V7.22602C15.4771 5.50822 14.7947 3.86077 13.58 2.64609C12.3653 1.43142 10.7179 0.749023 9.00005 0.749023C7.28225 0.749023 5.63479 1.43142 4.42012 2.64609C3.20545 3.86077 2.52305 5.50822 2.52305 7.22602V11.388C2.52313 11.9511 2.36476 12.5028 2.06605 12.98L0.978052 14.72C0.883445 14.8714 0.83108 15.0453 0.826394 15.2238C0.821709 15.4022 0.864874 15.5787 0.951408 15.7348C1.03794 15.8909 1.16469 16.021 1.31849 16.1116C1.4723 16.2022 1.64755 16.25 1.82605 16.25H16.1741C16.3526 16.25 16.5278 16.2022 16.6816 16.1116C16.8354 16.021 16.9622 15.8909 17.0487 15.7348C17.1352 15.5787 17.1784 15.4022 17.1737 15.2238C17.169 15.0453 17.1167 14.8714 17.0221 14.72L15.9341 12.98Z" stroke="black" stroke-width="1.5" stroke-linecap="round" stroke-linejoin="round"/>
<path id="Vector_2" d="M7 19.25H11" stroke="black" stroke-width="1.5" stroke-linecap="round"/>
</g>
</svg>
