<svg width="25" height="24" viewBox="0 0 25 24" fill="none" xmlns="http://www.w3.org/2000/svg">
<g id="icon/btn-shortcut">
<path id="Vector" fill-rule="evenodd" clip-rule="evenodd" d="M2.66675 12C2.66675 12.2176 2.7554 12.4258 2.91226 12.5766L8.11226 17.5766C8.43075 17.8829 8.93718 17.8729 9.24341 17.5544C9.54965 17.236 9.53972 16.7295 9.22124 16.4233L5.45297 12.8L21.866 12.8C22.3078 12.8 22.666 12.4418 22.666 12C22.666 11.5581 22.3078 11.2 21.866 11.2L5.45297 11.2L9.22124 7.57662C9.53972 7.27038 9.54965 6.76395 9.24341 6.44546C8.93718 6.12698 8.43075 6.11705 8.11226 6.42329L2.91226 11.4233C2.7554 11.5741 2.66675 11.7823 2.66675 12Z" fill="#444950"/>
</g>
</svg>
