<svg width="20" height="20" viewBox="0 0 20 20" fill="none" xmlns="http://www.w3.org/2000/svg">
<g id="Vector">
<path id="Rectangle 414" d="M0 10C0 15.5228 4.47715 20 10 20C15.5228 20 20 15.5228 20 10C20 4.47715 15.5228 0 10 0C4.47715 0 0 4.47715 0 10Z" fill="#2391F6"/>
<path id="Vector 339 (Stroke)" fill-rule="evenodd" clip-rule="evenodd" d="M13.7529 6.33951C14.1177 6.58879 14.2114 7.08659 13.9621 7.45138L9.8621 13.4514C9.72781 13.6479 9.51298 13.7744 9.27598 13.7966C9.03899 13.8187 8.80444 13.7341 8.63608 13.5659L6.13452 11.0659C5.822 10.7536 5.82184 10.247 6.13416 9.93452C6.44648 9.622 6.95302 9.62184 7.26553 9.93417L9.08508 11.7526L12.6411 6.54868C12.8903 6.18388 13.3881 6.09024 13.7529 6.33951Z" fill="white"/>
</g>
</svg>
