<svg width="20" height="21" viewBox="0 0 20 21" fill="none" xmlns="http://www.w3.org/2000/svg">
<g id="icon/close">
<path id="Vector" fill-rule="evenodd" clip-rule="evenodd" d="M15.5253 4.02902C15.7857 3.76866 16.2078 3.76865 16.4681 4.02899C16.7285 4.28933 16.7285 4.71144 16.4682 4.9718L10.9412 10.4991L16.4714 16.0297C16.7318 16.2901 16.7317 16.7122 16.4714 16.9725C16.211 17.2329 15.7889 17.2329 15.5286 16.9725L9.99837 11.442L4.46816 16.9725C4.20782 17.2329 3.78571 17.2329 3.52535 16.9725C3.265 16.7122 3.26498 16.2901 3.52533 16.0297L9.05559 10.4991L3.52858 4.9718C3.26824 4.71144 3.26825 4.28933 3.52861 4.02899C3.78897 3.76865 4.21108 3.76866 4.47142 4.02902L9.99837 9.5563L15.5253 4.02902Z" fill="#444950"/>
</g>
</svg>
