<svg width="24" height="24" viewBox="0 0 24 24" fill="none" xmlns="http://www.w3.org/2000/svg">
<g id="vuesax/bold/dollar-circle">
<g id="dollar-circle">
<path id="Vector" d="M12.75 15.9198H13.4C14.05 15.9198 14.59 15.3398 14.59 14.6398C14.59 13.7698 14.28 13.5998 13.77 13.4198L12.76 13.0698V15.9198H12.75Z" fill="#FECB3F"/>
<path id="Vector_2" d="M11.9699 1.89992C6.44994 1.91992 1.97994 6.40992 1.99994 11.9299C2.01994 17.4499 6.50994 21.9199 12.0299 21.8999C17.5499 21.8799 22.0199 17.3899 21.9999 11.8699C21.9799 6.34992 17.4899 1.88992 11.9699 1.89992ZM14.2599 11.9999C15.0399 12.2699 16.0899 12.8499 16.0899 14.6399C16.0899 16.1799 14.8799 17.4199 13.3999 17.4199H12.7499V17.9999C12.7499 18.4099 12.4099 18.7499 11.9999 18.7499C11.5899 18.7499 11.2499 18.4099 11.2499 17.9999V17.4199H10.8899C9.24995 17.4199 7.91994 16.0399 7.91994 14.3399C7.91994 13.9299 8.25994 13.5899 8.66994 13.5899C9.07994 13.5899 9.41994 13.9299 9.41994 14.3399C9.41994 15.2099 10.0799 15.9199 10.8899 15.9199H11.2499V12.5399L9.73994 11.9999C8.95994 11.7299 7.90994 11.1499 7.90994 9.35992C7.90994 7.81992 9.11995 6.57992 10.5999 6.57992H11.2499V5.99992C11.2499 5.58992 11.5899 5.24992 11.9999 5.24992C12.4099 5.24992 12.7499 5.58992 12.7499 5.99992V6.57992H13.1099C14.7499 6.57992 16.0799 7.95992 16.0799 9.65992C16.0799 10.0699 15.7399 10.4099 15.3299 10.4099C14.9199 10.4099 14.5799 10.0699 14.5799 9.65992C14.5799 8.78992 13.9199 8.07992 13.1099 8.07992H12.7499V11.4599L14.2599 11.9999Z" fill="#FECB3F"/>
<path id="Vector_3" d="M9.42004 9.37008C9.42004 10.2401 9.73004 10.4101 10.24 10.5901L11.25 10.9401V8.08008H10.6C9.95004 8.08008 9.42004 8.66008 9.42004 9.37008Z" fill="#FECB3F"/>
</g>
</g>
</svg>
