<svg width="24" height="24" viewBox="0 0 24 24" fill="none" xmlns="http://www.w3.org/2000/svg">
<g id="icon/download">
<path id="Vector" fill-rule="evenodd" clip-rule="evenodd" d="M12.5755 16.0542C12.4247 16.2111 12.2165 16.2998 11.9989 16.2998C11.7812 16.2998 11.573 16.2111 11.4222 16.0542L6.42219 10.8542C6.11595 10.5358 6.12588 10.0293 6.44437 9.72309C6.76285 9.41685 7.26929 9.42678 7.57552 9.74527L11.1989 13.5135V3.79976C11.1989 3.35793 11.557 2.99976 11.9989 2.99976C12.4407 2.99976 12.7989 3.35793 12.7989 3.79976V13.5135L16.4222 9.74527C16.7284 9.42678 17.2349 9.41685 17.5533 9.72309C17.8718 10.0293 17.8818 10.5358 17.5755 10.8542L12.5755 16.0542ZM3.60042 16.0003C3.60052 15.5585 3.24244 15.2003 2.80061 15.2001C2.35878 15.2 2.00052 15.5581 2.00042 16L1.99963 19.2C1.99958 19.4122 2.08384 19.6157 2.23388 19.7658C2.38391 19.9158 2.58743 20.0001 2.79963 20.0001H21.1989C21.6407 20.0001 21.9989 19.642 21.9989 19.2001V16.0001C21.9989 15.5583 21.6407 15.2001 21.1989 15.2001C20.757 15.2001 20.3989 15.5583 20.3989 16.0001V18.4001H3.59983L3.60042 16.0003Z" fill="#444950"/>
</g>
</svg>
