<svg width="24" height="25" viewBox="0 0 24 25" fill="none" xmlns="http://www.w3.org/2000/svg">
<g id="icon/drag" opacity="0.5">
<path id="Vector" d="M7.5 6.5C7.5 6.29 7.5 6.1865 7.512 6.0995C7.55018 5.82456 7.67704 5.5696 7.87332 5.37332C8.0696 5.17704 8.32456 5.05018 8.5995 5.012C8.685 5 8.79 5 9 5C9.21 5 9.3135 5 9.4005 5.012C9.67544 5.05018 9.9304 5.17704 10.1267 5.37332C10.323 5.5696 10.4498 5.82456 10.488 6.0995C10.5 6.185 10.5 6.29 10.5 6.5C10.5 6.71 10.5 6.8135 10.488 6.9005C10.4498 7.17544 10.323 7.4304 10.1267 7.62668C9.9304 7.82296 9.67544 7.94982 9.4005 7.988C9.315 8 9.21 8 9 8C8.79 8 8.6865 8 8.5995 7.988C8.32456 7.94982 8.0696 7.82296 7.87332 7.62668C7.67704 7.4304 7.55018 7.17544 7.512 6.9005C7.5 6.815 7.5 6.71 7.5 6.5ZM7.5 12.5C7.5 12.29 7.5 12.1865 7.512 12.0995C7.55018 11.8246 7.67704 11.5696 7.87332 11.3733C8.0696 11.177 8.32456 11.0502 8.5995 11.012C8.685 11 8.79 11 9 11C9.21 11 9.3135 11 9.4005 11.012C9.67544 11.0502 9.9304 11.177 10.1267 11.3733C10.323 11.5696 10.4498 11.8246 10.488 12.0995C10.5 12.185 10.5 12.29 10.5 12.5C10.5 12.71 10.5 12.8135 10.488 12.9005C10.4498 13.1754 10.323 13.4304 10.1267 13.6267C9.9304 13.823 9.67544 13.9498 9.4005 13.988C9.315 14 9.21 14 9 14C8.79 14 8.6865 14 8.5995 13.988C8.32456 13.9498 8.0696 13.823 7.87332 13.6267C7.67704 13.4304 7.55018 13.1754 7.512 12.9005C7.5 12.815 7.5 12.71 7.5 12.5ZM7.5 18.5C7.5 18.2915 7.5 18.1865 7.512 18.0995C7.5504 17.8251 7.67718 17.5706 7.87314 17.3746C8.06909 17.1787 8.32355 17.0519 8.598 17.0135C8.6865 17.0015 8.79 17.0015 8.9985 17.0015C9.207 17.0015 9.3135 17.0015 9.399 17.0135C9.67345 17.0519 9.92791 17.1787 10.1239 17.3746C10.3198 17.5706 10.4466 17.8251 10.485 18.0995C10.497 18.1865 10.497 18.2915 10.497 18.5C10.497 18.7085 10.497 18.8135 10.485 18.9005C10.4466 19.1749 10.3198 19.4294 10.1239 19.6254C9.92791 19.8213 9.67345 19.9481 9.399 19.9865C9.312 19.9985 9.207 19.9985 8.9985 19.9985C8.79 19.9985 8.685 19.9985 8.598 19.9865C8.32355 19.9481 8.06909 19.8213 7.87314 19.6254C7.67718 19.4294 7.5504 19.1749 7.512 18.9005C7.5 18.8135 7.5 18.7085 7.5 18.5ZM13.5 6.5C13.5 6.29 13.5 6.1865 13.512 6.0995C13.5502 5.82456 13.677 5.5696 13.8733 5.37332C14.0696 5.17704 14.3246 5.05018 14.5995 5.012C14.685 5 14.79 5 15 5C15.21 5 15.3135 5 15.4005 5.012C15.6754 5.05018 15.9304 5.17704 16.1267 5.37332C16.323 5.5696 16.4498 5.82456 16.488 6.0995C16.5 6.185 16.5 6.29 16.5 6.5C16.5 6.71 16.5 6.8135 16.488 6.9005C16.4498 7.17544 16.323 7.4304 16.1267 7.62668C15.9304 7.82296 15.6754 7.94982 15.4005 7.988C15.315 8 15.21 8 15 8C14.79 8 14.6865 8 14.5995 7.988C14.3246 7.94982 14.0696 7.82296 13.8733 7.62668C13.677 7.4304 13.5502 7.17544 13.512 6.9005C13.5 6.815 13.5 6.71 13.5 6.5ZM13.5 12.5C13.5 12.29 13.5 12.1865 13.512 12.0995C13.5502 11.8246 13.677 11.5696 13.8733 11.3733C14.0696 11.177 14.3246 11.0502 14.5995 11.012C14.685 11 14.79 11 15 11C15.21 11 15.3135 11 15.4005 11.012C15.6754 11.0502 15.9304 11.177 16.1267 11.3733C16.323 11.5696 16.4498 11.8246 16.488 12.0995C16.5 12.185 16.5 12.29 16.5 12.5C16.5 12.71 16.5 12.8135 16.488 12.9005C16.4498 13.1754 16.323 13.4304 16.1267 13.6267C15.9304 13.823 15.6754 13.9498 15.4005 13.988C15.315 14 15.21 14 15 14C14.79 14 14.6865 14 14.5995 13.988C14.3246 13.9498 14.0696 13.823 13.8733 13.6267C13.677 13.4304 13.5502 13.1754 13.512 12.9005C13.5 12.815 13.5 12.71 13.5 12.5ZM13.5 18.5C13.5 18.2915 13.5 18.1865 13.512 18.0995C13.5504 17.8251 13.6772 17.5706 13.8731 17.3746C14.0691 17.1787 14.3236 17.0519 14.598 17.0135C14.6865 17.0015 14.79 17.0015 14.9985 17.0015C15.2085 17.0015 15.3135 17.0015 15.399 17.0135C15.6734 17.0519 15.9279 17.1787 16.1239 17.3746C16.3198 17.5706 16.4466 17.8251 16.485 18.0995C16.497 18.1865 16.497 18.2915 16.497 18.5C16.497 18.7085 16.497 18.8135 16.485 18.9005C16.4466 19.1749 16.3198 19.4294 16.1239 19.6254C15.9279 19.8213 15.6734 19.9481 15.399 19.9865C15.312 19.9985 15.207 19.9985 14.9985 19.9985C14.79 19.9985 14.685 19.9985 14.598 19.9865C14.3236 19.9481 14.0691 19.8213 13.8731 19.6254C13.6772 19.4294 13.5504 19.1749 13.512 18.9005C13.5 18.8135 13.5 18.7085 13.5 18.5Z" fill="#1A1A1A"/>
</g>
</svg>
