<svg width="22" height="19" viewBox="0 0 22 19" fill="none" xmlns="http://www.w3.org/2000/svg">
<g id="Vector">
<path id="Polygon 6" d="M10.1704 0.493506C10.5391 -0.164503 11.4609 -0.164502 11.8296 0.493507L21.3702 17.5195C21.7389 18.1775 21.278 19 20.5406 19H1.45939C0.721951 19 0.261052 18.1775 0.629772 17.5195L10.1704 0.493506Z" fill="#FAE03E"/>
<path id="Union" fill-rule="evenodd" clip-rule="evenodd" d="M10.5 6C10.2239 6 10 6.22386 10 6.5V12.5C10 12.7761 10.2239 13 10.5 13H11.5C11.7761 13 12 12.7761 12 12.5V6.5C12 6.22386 11.7761 6 11.5 6H10.5ZM10.5 14C10.2239 14 10 14.2239 10 14.5V15.5C10 15.7761 10.2239 16 10.5 16H11.5C11.7761 16 12 15.7761 12 15.5V14.5C12 14.2239 11.7761 14 11.5 14H10.5Z" fill="white"/>
</g>
</svg>
