<svg width="18" height="18" viewBox="0 0 18 18" fill="none" xmlns="http://www.w3.org/2000/svg">
<path d="M0.666992 8.99992C0.666992 13.6023 4.39795 17.3333 9.00033 17.3333V17.3333C13.6027 17.3333 17.3337 13.6023 17.3337 8.99992V8.99992C17.3337 4.39755 13.6027 0.666584 9.00033 0.666584V0.666584C4.39795 0.666584 0.666992 4.39755 0.666992 8.99992V8.99992Z" fill="#EA605C"/>
<path fill-rule="evenodd" clip-rule="evenodd" d="M6.97108 6.02876C6.71073 5.76841 6.28862 5.76841 6.02827 6.02876C5.76792 6.28911 5.76792 6.71122 6.02827 6.97157L8.05731 9.00061L6.02916 11.0288C5.76881 11.2891 5.76881 11.7112 6.02916 11.9716C6.28951 12.2319 6.71162 12.2319 6.97197 11.9716L9.00012 9.94342L11.0283 11.9716C11.2886 12.2319 11.7107 12.2319 11.9711 11.9716C12.2314 11.7112 12.2314 11.2891 11.9711 11.0288L9.94293 9.00061L11.972 6.97157C12.2323 6.71122 12.2323 6.28911 11.972 6.02876C11.7116 5.76841 11.2895 5.76841 11.0292 6.02876L9.00012 8.0578L6.97108 6.02876Z" fill="white"/>
</svg>
