<svg width="98" height="36" viewBox="0 0 98 36" fill="none" xmlns="http://www.w3.org/2000/svg">
<path d="M2.856 28C1.488 28 0.792 27.232 0.984 25.864L2.88 12.496C3.072 11.272 3.792 10.624 5.04 10.624H7.296C8.52 10.624 9.24 11.224 9.552 12.4L12.336 22.936L15.12 12.4C15.432 11.224 16.152 10.624 17.352 10.624H19.608C20.856 10.624 21.6 11.272 21.768 12.496L23.664 25.864C23.856 27.232 23.16 28 21.792 28H20.976C19.728 28 19.008 27.352 18.84 26.104L17.64 16.984L15.072 26.272C14.76 27.424 14.016 28 12.816 28H11.832C10.632 28 9.912 27.424 9.576 26.272L7.008 16.984L5.808 26.104C5.64 27.352 4.92 28 3.672 28H2.856ZM33.6636 28.192C29.2716 28.192 25.4076 25.648 25.4076 19.336C25.4076 13.144 29.3196 10.504 33.7116 10.504C38.0316 10.504 42.0156 13.144 42.0156 19.336C42.0156 25.648 38.0556 28.192 33.6636 28.192ZM33.6636 23.968C35.7276 23.968 37.1436 22.408 37.1436 19.336C37.1436 16.384 35.7276 14.752 33.6876 14.752C31.5756 14.752 30.1836 16.384 30.1836 19.336C30.1836 22.408 31.5516 23.968 33.6636 23.968ZM46.8221 28C45.5021 28 44.7821 27.304 44.7821 25.984V12.664C44.7821 11.344 45.5021 10.624 46.8221 10.624H50.1581C57.1661 10.624 59.7821 13.792 59.7821 19.336C59.7821 24.784 57.1661 28 50.1581 28H46.8221ZM50.3501 23.728C53.9981 23.728 54.8861 22.192 54.8861 19.288C54.8861 16.432 53.9981 14.872 50.3261 14.872H49.6541V23.728H50.3501ZM64.6112 28C63.2912 28 62.5712 27.304 62.5712 25.984V12.664C62.5712 11.344 63.2912 10.624 64.6112 10.624H67.9472C74.9552 10.624 77.5712 13.792 77.5712 19.336C77.5712 24.784 74.9552 28 67.9472 28H64.6112ZM68.1392 23.728C71.7872 23.728 72.6752 22.192 72.6752 19.288C72.6752 16.432 71.7872 14.872 68.1152 14.872H67.4432V23.728H68.1392ZM87.9683 28.192C83.5763 28.192 79.7123 25.648 79.7123 19.336C79.7123 13.144 83.6243 10.504 88.0163 10.504C92.3363 10.504 96.3203 13.144 96.3203 19.336C96.3203 25.648 92.3603 28.192 87.9683 28.192ZM87.9683 23.968C90.0323 23.968 91.4483 22.408 91.4483 19.336C91.4483 16.384 90.0323 14.752 87.9923 14.752C85.8803 14.752 84.4883 16.384 84.4883 19.336C84.4883 22.408 85.8563 23.968 87.9683 23.968Z" fill="#292C30"/>
</svg>
