<svg width="48" height="48" viewBox="0 0 48 48" fill="none" xmlns="http://www.w3.org/2000/svg">
<g id="kakaotalk">
<circle id="Ellipse 20" cx="24" cy="24" r="24" fill="#FEE500"/>
<g id="Group 316">
<path id="Vector" d="M24.0687 11.5831C16.6018 11.5831 10.5801 16.4004 10.5801 22.2487C10.5801 26.0448 13.0851 29.3687 16.8426 31.2668L15.5709 36.0167C15.5469 36.0879 15.5432 36.1643 15.5602 36.2375C15.5772 36.3106 15.6143 36.3776 15.6672 36.4309C15.7444 36.499 15.8437 36.5367 15.9466 36.5369C16.0319 36.5301 16.1129 36.4964 16.1778 36.4406L21.6504 32.7505C22.4582 32.862 23.2725 32.9199 24.0879 32.9239C31.5452 32.9239 37.5765 28.1066 37.5765 22.2487C37.5765 16.3908 31.5259 11.5831 24.0687 11.5831Z" fill="#392020"/>
<path id="Vector_2" d="M15.3009 20.5626H13.8268C13.6441 20.5679 13.4636 20.5211 13.3065 20.4277C13.2367 20.384 13.1768 20.3263 13.1303 20.2583C13.0839 20.1903 13.052 20.1135 13.0367 20.0326C13.032 19.9813 13.032 19.9298 13.0367 19.8785C13.0321 19.7826 13.0508 19.6869 13.091 19.5997C13.1313 19.5125 13.192 19.4363 13.2679 19.3775C13.4359 19.2559 13.6387 19.1916 13.846 19.1944H18.2876C18.4718 19.1879 18.6535 19.2384 18.8079 19.3389C18.8793 19.3807 18.9405 19.4379 18.9872 19.5062C19.0338 19.5745 19.0648 19.6523 19.0777 19.734C19.0824 19.7821 19.0824 19.8305 19.0777 19.8785C19.0822 19.9759 19.0636 20.0729 19.0234 20.1616C18.9832 20.2504 18.9226 20.3283 18.8464 20.3891C18.6826 20.5106 18.4818 20.5719 18.278 20.5626H16.8521V25.6304C16.8579 25.7384 16.8411 25.8463 16.803 25.9475C16.7648 26.0487 16.7061 26.1409 16.6305 26.2181C16.5579 26.292 16.4707 26.3499 16.3745 26.3881C16.2783 26.4263 16.1751 26.4438 16.0716 26.4397C15.8907 26.4449 15.7136 26.3871 15.5706 26.276C15.4345 26.1675 15.3422 26.0135 15.3105 25.8424C15.301 25.772 15.301 25.7008 15.3105 25.6304L15.3009 20.5626Z" fill="#FEE500"/>
<path id="Vector_3" d="M19.5027 19.5702C19.5451 19.4116 19.6446 19.2743 19.7822 19.1847C19.9287 19.1017 20.0956 19.0616 20.2639 19.0691H20.63C20.8085 19.0627 20.9853 19.1061 21.1406 19.1944C21.3052 19.3051 21.4222 19.4736 21.4682 19.6665L23.3952 25.1101C23.4451 25.2521 23.4869 25.397 23.5204 25.5437C23.5237 25.6047 23.5237 25.6658 23.5204 25.7267C23.5237 25.8206 23.5064 25.9141 23.4698 26.0007C23.4332 26.0872 23.3781 26.1647 23.3085 26.2278C23.241 26.297 23.1599 26.3515 23.0704 26.388C22.9809 26.4244 22.8848 26.442 22.7882 26.4397C22.6396 26.4545 22.4903 26.4188 22.3645 26.3384C22.2386 26.258 22.1435 26.1376 22.0945 25.9965L21.6898 24.8115H19.1559L18.7512 25.9965C18.7034 26.1404 18.6071 26.2632 18.4789 26.344C18.3506 26.4248 18.1983 26.4586 18.0479 26.4397C17.885 26.444 17.7254 26.393 17.5951 26.2952C17.4681 26.1942 17.3824 26.0503 17.3542 25.8906C17.3491 25.8361 17.3491 25.7812 17.3542 25.7267C17.3377 25.6311 17.3377 25.5334 17.3542 25.4378C17.3542 25.3318 17.4216 25.2161 17.4602 25.1101L19.5027 19.5702ZM20.4662 20.8324L19.5509 23.7228H21.3719L20.4662 20.8324Z" fill="#FEE500"/>
<path id="Vector_4" d="M23.7411 19.8787C23.7313 19.6625 23.8075 19.4512 23.953 19.291C24.027 19.2164 24.1158 19.158 24.2138 19.1199C24.3117 19.0817 24.4165 19.0644 24.5215 19.0693C24.702 19.0672 24.8781 19.1248 25.0225 19.2331C25.1563 19.3461 25.2452 19.5033 25.273 19.6763C25.2825 19.7434 25.2825 19.8116 25.273 19.8787V24.9466H27.9225C28.1062 24.9442 28.2867 24.9942 28.4428 25.091C28.513 25.1342 28.5732 25.1918 28.6197 25.2599C28.6662 25.3279 28.6978 25.405 28.7126 25.486C28.7126 25.486 28.7126 25.5824 28.7126 25.6306C28.7172 25.7265 28.6985 25.8221 28.6583 25.9093C28.618 25.9965 28.5573 26.0728 28.4813 26.1316C28.3134 26.2533 28.1106 26.3174 27.9033 26.3146H24.6467C24.4393 26.328 24.2332 26.274 24.059 26.1605C23.9032 26.0441 23.7994 25.8711 23.77 25.6788C23.7629 25.5729 23.7629 25.4666 23.77 25.3608L23.7411 19.8787Z" fill="#FEE500"/>
<path id="Vector_5" d="M28.8872 19.8787C28.8814 19.6631 28.9571 19.4533 29.0992 19.291C29.2436 19.1598 29.4288 19.0823 29.6236 19.0718C29.8184 19.0613 30.0109 19.1183 30.1686 19.2332C30.3054 19.3452 30.3976 19.5023 30.4288 19.6763C30.4335 19.7437 30.4335 19.8114 30.4288 19.8787V22.2392L32.8663 19.4258C32.9603 19.3298 33.06 19.2398 33.165 19.1561C33.264 19.0972 33.3775 19.0671 33.4926 19.0693C33.661 19.0684 33.8257 19.1188 33.9647 19.2139C34.0302 19.258 34.0862 19.3149 34.1292 19.3811C34.1722 19.4473 34.2015 19.5215 34.2152 19.5993C34.2191 19.6184 34.2191 19.6381 34.2152 19.6572C34.2105 19.6794 34.2105 19.7023 34.2152 19.7245C34.2149 19.8259 34.1883 19.9255 34.1381 20.0136C34.087 20.1069 34.0256 20.1941 33.9551 20.2737L32.3557 22.0273L34.2827 25.014V25.1103C34.3827 25.2484 34.4607 25.4012 34.5139 25.5632V25.6113C34.525 25.723 34.5089 25.8357 34.467 25.9397C34.425 26.0438 34.3585 26.136 34.273 26.2087C34.1123 26.3302 33.9157 26.3946 33.7142 26.3918C33.5804 26.3973 33.4474 26.3673 33.3288 26.305C33.2005 26.219 33.0947 26.1033 33.0205 25.9678L31.2284 23.0774L30.371 23.9735V25.5824C30.3767 25.798 30.301 26.0078 30.159 26.1701C30.0828 26.2445 29.9923 26.3027 29.8929 26.3408C29.7935 26.3789 29.6873 26.3963 29.5809 26.3918C29.4031 26.3955 29.2295 26.3376 29.0895 26.228C28.9534 26.1195 28.8611 25.9656 28.8294 25.7945C28.8199 25.7241 28.8199 25.6527 28.8294 25.5824L28.8872 19.8787Z" fill="#FEE500"/>
</g>
</g>
</svg>
